<svg width="1260" height="373" viewBox="0 0 1260 373" fill="none" xmlns="http://www.w3.org/2000/svg">
<path d="M8 204V48C8 44.6863 10.6863 42 14 42H45C48.3137 42 51 44.6863 51 48V117.5C53.5 139.5 68.5 158 89.5 158C110.292 158 120.301 150.648 131.174 139.825C131.39 139.61 131.594 139.372 131.774 139.126C138.133 130.413 141.202 124.69 141.716 117.749C141.981 114.162 144.665 111 148.262 111H179.348C183.241 111 186.103 114.65 185.175 118.431L180 139.5C173.537 161.871 160.154 187.208 126.581 196.835C126.199 196.945 125.8 197.015 125.404 197.044L99 199C72.7597 203.693 54.1372 208.07 35 225.5C25.5 235 16.5 241.5 13 256.5L9.06344 282.088C8.50428 285.722 11.3164 289 14.9937 289H45.0838C48.3646 289 50.9459 286.353 51.3417 283.096C52.0212 277.505 53.9943 272.01 59.7377 261.958C59.9095 261.657 60.1147 261.361 60.3386 261.097C70.0734 249.612 78.5846 248.075 92.4725 245.594C92.8209 245.532 93.1815 245.499 93.5354 245.502C113.752 245.657 128.031 254.561 131.5 261.5C134.39 267.279 139.324 274.081 140.957 283.031C141.552 286.291 144.186 289 147.5 289H178C181.314 289 184 286.314 184 283V262.528C184 261.848 183.884 261.169 183.653 260.529C178.701 246.852 173.191 239.023 160 225.5" stroke="black" stroke-width="16" stroke-linecap="round"/>
<path d="M274.035 278.916C270.386 278.916 267.557 277.912 265.55 275.905C263.725 273.715 262.813 270.796 262.813 267.146V93.6134C262.813 89.7814 263.725 86.9531 265.55 85.1283C267.557 83.1211 270.386 82.1175 274.035 82.1175C277.685 82.1175 280.422 83.1211 282.246 85.1283C284.254 86.9531 285.257 89.7814 285.257 93.6134V171.621H285.805L375.035 88.4129C377.224 86.2232 379.414 84.6721 381.604 83.7598C383.793 82.6649 386.165 82.1175 388.72 82.1175C392.187 82.1175 394.651 82.9386 396.11 84.5809C397.753 86.2232 398.391 88.2304 398.026 90.6025C397.661 92.9747 396.384 95.2556 394.194 97.4453L300.859 183.938L301.132 171.895L398.574 261.946C401.311 264.501 402.771 267.146 402.953 269.884C403.136 272.438 402.314 274.628 400.49 276.453C398.847 278.095 396.293 278.916 392.826 278.916C390.089 278.916 387.717 278.277 385.709 277C383.885 275.905 381.786 274.172 379.414 271.799L285.805 186.128H285.257V267.146C285.257 270.796 284.345 273.715 282.52 275.905C280.695 277.912 277.867 278.916 274.035 278.916ZM506.882 279.463C489 279.463 473.398 275.449 460.078 267.42C446.939 259.209 436.721 247.713 429.422 232.932C422.305 218.152 418.747 200.635 418.747 180.38C418.747 165.052 420.754 151.366 424.769 139.323C428.966 127.097 434.896 116.788 442.56 108.394C450.224 99.8175 459.439 93.2484 470.205 88.6866C481.153 83.9422 493.379 81.5701 506.882 81.5701C525.13 81.5701 540.822 85.5845 553.961 93.6134C567.281 101.642 577.5 113.047 584.616 127.827C591.915 142.425 595.565 159.852 595.565 180.106C595.565 195.434 593.466 209.211 589.269 221.437C585.072 233.662 579.142 244.063 571.478 252.64C563.814 261.216 554.508 267.876 543.56 272.621C532.794 277.182 520.568 279.463 506.882 279.463ZM506.882 259.482C520.75 259.482 532.429 256.38 541.917 250.176C551.588 243.972 558.979 234.94 564.088 223.079C569.197 211.218 571.752 196.985 571.752 180.38C571.752 155.381 566.095 136.039 554.782 122.353C543.651 108.485 527.684 101.551 506.882 101.551C493.379 101.551 481.792 104.653 472.121 110.857C462.632 117.061 455.333 126.094 450.224 137.955C445.115 149.633 442.56 163.775 442.56 180.38C442.56 205.196 448.217 224.63 459.53 238.68C470.844 252.548 486.628 259.482 506.882 259.482ZM648.008 277C643.994 277 640.892 275.996 638.702 273.989C636.695 271.799 635.691 268.697 635.691 264.683V96.3505C635.691 92.3361 636.695 89.3252 638.702 87.318C640.892 85.1283 643.994 84.0335 648.008 84.0335H700.834C732.038 84.0335 756.124 92.2448 773.094 108.668C790.064 125.09 798.549 148.994 798.549 180.38C798.549 196.073 796.36 209.941 791.98 221.984C787.783 233.845 781.488 243.881 773.094 252.092C764.7 260.304 754.482 266.508 742.439 270.705C730.395 274.902 716.527 277 700.834 277H648.008ZM658.136 257.84H699.192C711.965 257.84 723.005 256.198 732.311 252.913C741.8 249.629 749.646 244.793 755.85 238.407C762.237 232.02 766.981 223.991 770.083 214.32C773.186 204.466 774.737 193.153 774.737 180.38C774.737 154.651 768.441 135.4 755.85 122.627C743.26 109.671 724.374 103.193 699.192 103.193H658.136V257.84ZM831.523 278.916C828.603 278.916 826.231 278.277 824.407 277C822.764 275.54 821.761 273.715 821.396 271.526C821.213 269.154 821.761 266.508 823.038 263.588L898.309 92.2448C899.951 88.5953 901.867 86.0407 904.057 84.5809C906.429 82.9386 908.983 82.1175 911.721 82.1175C914.458 82.1175 916.921 82.9386 919.111 84.5809C921.483 86.0407 923.399 88.5953 924.859 92.2448L1000.4 263.588C1001.86 266.508 1002.41 269.154 1002.05 271.526C1001.86 273.898 1000.95 275.723 999.308 277C997.666 278.277 995.385 278.916 992.465 278.916C989.181 278.916 986.535 278.095 984.528 276.453C982.521 274.628 980.878 272.073 979.601 268.789L959.346 221.984L970.295 227.732H852.599L863.821 221.984L843.84 268.789C842.198 272.256 840.464 274.81 838.64 276.453C836.815 278.095 834.443 278.916 831.523 278.916ZM911.447 110.31L867.379 214.046L860.81 208.846H962.083L956.062 214.046L911.994 110.31H911.447ZM1103.13 278.916C1100.03 278.916 1097.48 278.095 1095.47 276.453C1093.65 274.81 1092.55 272.803 1092.19 270.431C1092 268.059 1092.92 265.687 1094.92 263.314L1161.16 174.085V182.57L1098.76 98.2665C1096.75 95.5294 1095.84 92.9747 1096.02 90.6025C1096.2 88.2304 1097.2 86.2232 1099.03 84.5809C1101.04 82.9386 1103.41 82.1175 1106.15 82.1175C1108.7 82.1175 1110.89 82.6649 1112.71 83.7598C1114.54 84.8546 1116.46 86.7706 1118.46 89.5077L1174.57 166.421H1167.46L1223.29 89.5077C1225.12 86.7706 1226.94 84.8546 1228.77 83.7598C1230.59 82.6649 1232.78 82.1175 1235.34 82.1175C1238.26 82.1175 1240.63 82.9386 1242.45 84.5809C1244.46 86.0407 1245.56 88.0479 1245.74 90.6025C1245.92 92.9747 1245.01 95.5294 1243 98.2665L1180.59 182.57V174.085L1246.83 263.314C1248.66 265.687 1249.39 268.059 1249.02 270.431C1248.84 272.803 1247.84 274.81 1246.01 276.453C1244.19 278.095 1241.72 278.916 1238.62 278.916C1236.25 278.916 1234.06 278.277 1232.05 277C1230.23 275.905 1228.31 274.08 1226.3 271.526L1166.36 189.686H1175.12L1115.18 271.526C1113.35 274.08 1111.44 275.905 1109.43 277C1107.42 278.277 1105.32 278.916 1103.13 278.916Z" fill="black"/>
</svg>
