<svg width="194" height="264" viewBox="0 0 194 264" fill="none" xmlns="http://www.w3.org/2000/svg">
<path d="M8.5 170.5V14.5C8.5 11.1863 11.1863 8.5 14.5 8.5H45.5C48.8137 8.5 51.5 11.1863 51.5 14.5V84C54 106 69 124.5 90 124.5C110.792 124.5 120.801 117.148 131.674 106.325C131.89 106.11 132.094 105.872 132.274 105.626C138.633 96.9127 141.702 91.1896 142.216 84.2493C142.481 80.6624 145.165 77.5 148.762 77.5H179.848C183.741 77.5 186.603 81.1503 185.675 84.9311L180.5 106C174.037 128.371 160.654 153.708 127.081 163.335C126.699 163.445 126.3 163.515 125.904 163.544L99.5 165.5C73.2597 170.193 54.6372 174.57 35.5 192C26 201.5 17 208 13.5 223L9.56344 248.588C9.00428 252.222 11.8164 255.5 15.4937 255.5H45.5838C48.8646 255.5 51.4459 252.853 51.8417 249.596C52.5212 244.005 54.4943 238.51 60.2377 228.458C60.4095 228.157 60.6147 227.861 60.8386 227.597C70.5734 216.112 79.0846 214.575 92.9725 212.094C93.3209 212.032 93.6815 211.999 94.0354 212.002C114.252 212.157 128.531 221.061 132 228C134.89 233.779 139.824 240.581 141.457 249.531C142.052 252.791 144.686 255.5 148 255.5H178.5C181.814 255.5 184.5 252.814 184.5 249.5V229.028C184.5 228.348 184.384 227.669 184.153 227.029C179.201 213.352 173.691 205.523 160.5 192" stroke="black" stroke-width="16" stroke-linecap="round"/>
</svg>
